<svg xmlns="http://www.w3.org/2000/svg" xmlns:xlink="http://www.w3.org/1999/xlink" width="46" height="46">
  <defs>
    <circle id="a" cx="23" cy="23" r="22"/>
    <circle id="b" cx="23" cy="23" r="22"/>
    <filter id="c" width="104.5%" height="104.5%" x="-2.3%" y="-2.3%" filterUnits="objectBoundingBox">
      <feOffset dy="-2" in="SourceAlpha" result="shadowOffsetInner1"/>
      <feComposite in="shadowOffsetInner1" in2="SourceAlpha" k2="-1" k3="1" operator="arithmetic" result="shadowInnerInner1"/>
      <feColorMatrix in="shadowInnerInner1" values="0 0 0 0 0.925490196 0 0 0 0 0.925490196 0 0 0 0 0.925490196 0 0 0 1 0"/>
    </filter>
    <path id="e" d="M24.926 26.504a.586.586 0 0 1 0-.835l.648-.635c.235-.23.426-.68.426-1.018v-8.819c0-.661-.532-1.197-1.2-1.197h-3.6c-.663 0-1.2.542-1.2 1.208v3.632c0 .334.196.796.426 1.02l.648.636a.59.59 0 0 1 0 .838l-.648.64A1.63 1.63 0 0 0 20 22.995v8.81c0 .66.532 1.195 1.2 1.195h3.6c.663 0 1.2-.542 1.2-1.208V28.16c0-.334-.196-.796-.426-1.02l-.648-.636z"/>
    <filter id="d" width="116.7%" height="110.5%" x="-8.3%" y="-2.6%" filterUnits="objectBoundingBox">
      <feOffset dy="1" in="SourceAlpha" result="shadowOffsetOuter1"/>
      <feColorMatrix in="shadowOffsetOuter1" values="0 0 0 0 1 0 0 0 0 1 0 0 0 0 1 0 0 0 1 0"/>
    </filter>
    <filter id="f" width="150%" height="121.1%" x="-25%" y="-7.9%" filterUnits="objectBoundingBox">
      <feGaussianBlur in="SourceAlpha" result="shadowBlurInner1" stdDeviation="1"/>
      <feOffset dy="1" in="shadowBlurInner1" result="shadowOffsetInner1"/>
      <feComposite in="shadowOffsetInner1" in2="SourceAlpha" k2="-1" k3="1" operator="arithmetic" result="shadowInnerInner1"/>
      <feColorMatrix in="shadowInnerInner1" values="0 0 0 0 0 0 0 0 0 0 0 0 0 0 0 0 0 0 0.681244339 0"/>
    </filter>
    <linearGradient id="g" x1="50%" x2="50%" y1="2.34%" y2="98.669%">
      <stop offset="0%" stop-color="#0AF"/>
      <stop offset="100%" stop-color="#0080FF"/>
    </linearGradient>
    <path id="h" d="M23 41c-9.941 0-18-8.059-18-18S13.059 5 23 5s18 8.059 18 18-8.059 18-18 18zm0-4c7.732 0 14-6.268 14-14S30.732 9 23 9 9 15.268 9 23s6.268 14 14 14z"/>
  </defs>
  <g fill="none" fill-rule="evenodd">
    <use fill="#FFF" xlink:href="#a"/>
    <circle cx="23" cy="23" r="22.5" stroke="#000" stroke-opacity=".2"/>
    <use fill="#FFF" xlink:href="#b"/>
    <use fill="#000" filter="url(#c)" xlink:href="#b"/>
    <circle cx="23" cy="23" r="7" fill="#F9F9F9" stroke="#E5E5E5"/>
    <use fill="#000" filter="url(#d)" xlink:href="#e"/>
    <use fill="#434A4F" xlink:href="#e"/>
    <use fill="#000" filter="url(#f)" xlink:href="#e"/>
    <use fill="url(#g)" xlink:href="#h"/>
    <path stroke="#0073E6" stroke-width=".5" d="M23 40.75c9.803 0 17.75-7.947 17.75-17.75S32.803 5.25 23 5.25 5.25 13.197 5.25 23 13.197 40.75 23 40.75zm0-3.5c-7.87 0-14.25-6.38-14.25-14.25S15.13 8.75 23 8.75 37.25 15.13 37.25 23 30.87 37.25 23 37.25z"/>
  </g>
</svg>
